<?xml version="1.0" encoding="UTF-8"?>
<svg version="1.1" xmlns="http://www.w3.org/2000/svg" width="1024" height="1024">
<path d="M0 0 C337.92 0 675.84 0 1024 0 C1024 337.92 1024 675.84 1024 1024 C686.08 1024 348.16 1024 0 1024 C0 686.08 0 348.16 0 0 Z " fill="#F7F5EA" transform="translate(0,0)"/>
<path d="M0 0 C5.84596182 2.6459479 10.08963278 6.96167256 12.84765625 12.7421875 C14.75650243 18.53813862 14.65100667 25.04075622 12.20703125 30.6640625 C9.09120874 36.04493328 4.21574787 39.22519994 -1.35546875 41.7265625 C-8.49617146 43.24586095 -13.27221281 42.24317096 -19.29296875 38.3515625 C-21.18407016 36.83792644 -22.98374949 35.27826465 -24.75 33.62109375 C-29.20835066 29.95283055 -35.89176615 31.03370822 -41.29296875 31.3515625 C-45.85145219 32.01936153 -50.30726078 32.99545922 -54.79296875 34.0390625 C-55.92605469 34.28333984 -57.05914062 34.52761719 -58.2265625 34.77929688 C-72.81556193 38.07978644 -88.46568347 43.57109093 -97.29296875 56.3515625 C-101.41102473 63.55013827 -103.44913077 69.25732008 -103.4609375 77.578125 C-103.4642659 78.39920746 -103.4675943 79.22028992 -103.47102356 80.06625366 C-103.47609178 81.81304363 -103.47843192 83.55984331 -103.47827148 85.30664062 C-103.48042067 87.91814413 -103.49847134 90.52919841 -103.51757812 93.140625 C-103.56778081 107.64350919 -102.50545624 121.72197171 -99.04296875 135.8515625 C-98.82898438 136.75898193 -98.615 137.66640137 -98.39453125 138.60131836 C-97.70353459 141.52043175 -96.99878626 144.43600062 -96.29296875 147.3515625 C-95.79753238 149.42562735 -95.3027524 151.4998491 -94.80859375 153.57421875 C-93.80134347 157.79470489 -92.78621937 162.01319076 -91.765625 166.23046875 C-90.8183433 170.15104246 -89.88754288 174.07474219 -88.9765625 178.00390625 C-86.97979552 186.5945036 -84.87012215 195.10119328 -82.31054688 203.54223633 C-80.3103263 210.17067626 -78.51790764 216.85050505 -76.73046875 223.5390625 C-76.12895616 225.77735716 -75.52739506 228.01563879 -74.92578125 230.25390625 C-73.97226861 233.80587704 -73.02811495 237.35990119 -72.09765625 240.91796875 C-71.77023437 242.13355469 -71.4428125 243.34914063 -71.10546875 244.6015625 C-70.84378906 245.59671875 -70.58210938 246.591875 -70.3125 247.6171875 C-68.43603689 252.64984719 -65.09051932 256.616504 -61.79296875 260.7890625 C-57.62928507 266.43093127 -54.57126212 272.47560443 -51.41796875 278.7265625 C-46.80773735 287.81428892 -41.95677588 295.63977202 -35.29296875 303.3515625 C-34.65230469 304.15207031 -34.01164062 304.95257813 -33.3515625 305.77734375 C-18.24568999 324.03684309 6.93956798 336.89890085 30.41015625 339.2265625 C60.03231848 340.83865296 86.26754601 332.50477849 108.38330078 312.86279297 C118.8372505 303.36819625 125.65220738 292.86722216 132.45703125 280.6015625 C136.14900758 273.9842904 140.48072712 267.97988131 145.13964844 262.00683594 C149.34414938 256.44407516 151.63891383 250.98449471 153.70703125 244.3515625 C154.09068848 243.13815186 154.4743457 241.92474121 154.86962891 240.67456055 C156.15849129 236.55517556 157.40410159 232.4232437 158.64453125 228.2890625 C158.86524292 227.55657288 159.08595459 226.82408325 159.31335449 226.06939697 C162.37118267 215.92029855 165.40017794 205.76663135 168.12402344 195.52197266 C168.76343453 193.14158546 169.4268674 190.76845821 170.08984375 188.39453125 C189.40278969 123.42886322 189.40278969 123.42886322 180.76953125 59.1640625 C179.20135724 56.44171242 177.74981005 54.39403628 175.515625 52.17578125 C173.70703125 50.3515625 173.70703125 50.3515625 173.70703125 48.3515625 C173.13597656 48.07957031 172.56492187 47.80757812 171.9765625 47.52734375 C169.66803271 46.33135844 167.56909942 44.9624845 165.39453125 43.5390625 C150.44925148 34.58063457 129.0874619 30.43047977 111.70703125 31.3515625 C109.00878649 32.56839555 109.00878649 32.56839555 106.70703125 34.3515625 C105.93101562 34.86976563 105.155 35.38796875 104.35546875 35.921875 C102.83386776 36.96242001 101.31303962 38.00409601 99.79296875 39.046875 C94.58546854 42.3040006 88.63372274 42.1236501 82.70703125 41.3515625 C76.75545706 38.81468206 72.72461761 35.00953692 69.70703125 29.3515625 C67.87934748 23.86851119 67.54344372 17.42102615 69.61328125 11.9609375 C72.5604745 7.01116422 76.51107704 2.9495396 81.70703125 0.3515625 C90.62980078 -0.41199968 97.62316139 -0.59956444 104.70703125 5.3515625 C110.83239488 9.59219886 114.29131904 10.3981302 121.70703125 10.6640625 C147.49106061 12.02095903 171.27228439 19.97103549 189.70703125 38.3515625 C190.31546875 38.93679687 190.92390625 39.52203125 191.55078125 40.125 C204.07175681 53.24538396 207.48354838 72.65765442 207.20703125 90.0390625 C207.2004953 90.75109833 207.19395935 91.46313416 207.18722534 92.19674683 C206.7522383 133.1439425 194.8723678 174.30977641 183.32080078 213.34643555 C180.45459226 223.07738059 177.88824274 232.8796374 175.40332031 242.71411133 C174.92668875 244.51952884 174.41645044 246.31631476 173.87792969 248.10424805 C171.99787283 254.41975192 171.42645197 259.97762369 171.45703125 266.5390625 C171.23502021 276.03573261 169.17343788 283.14492344 164.71289062 291.47070312 C163.70512302 293.3551307 162.75714594 295.26104792 161.81640625 297.1796875 C154.79288804 311.23572844 145.56416786 323.07098063 134.70703125 334.3515625 C133.85431641 335.29902344 133.85431641 335.29902344 132.984375 336.265625 C116.97571473 353.54351409 92.35884081 365.43739709 69.52880859 369.83349609 C64.89051336 370.792201 61.95188376 371.87348943 58.70703125 375.3515625 C58.18359712 378.43131638 57.9854143 380.96984081 58 384.0546875 C57.98478806 384.94025833 57.96957611 385.82582916 57.9539032 386.73823547 C57.9098246 389.69293324 57.90178091 392.64656175 57.89453125 395.6015625 C57.8723693 397.68353189 57.84840727 399.76548281 57.82275391 401.84741211 C57.76146882 407.48779418 57.73514041 413.12781991 57.71881104 418.76849365 C57.70682948 422.41293422 57.68712884 426.05726469 57.66552734 429.70166016 C57.62327174 437.10577732 57.5977979 444.50984396 57.58203125 451.9140625 C57.57908051 453.07659546 57.57612976 454.23912842 57.5730896 455.43688965 C57.49095623 503.03717728 58.18178081 551.37446056 90.70703125 589.3515625 C91.39410156 590.17269531 92.08117187 590.99382813 92.7890625 591.83984375 C113.53512085 615.8753672 146.52025908 632.5839653 178.20028687 635.58798218 C183.31319736 635.89291287 188.41779543 635.92299862 193.53833008 635.87304688 C196.14043581 635.85159626 198.73977357 635.87299223 201.34179688 635.8984375 C216.77313289 635.92577741 231.82722512 633.69237171 246.08203125 627.5390625 C247.32750732 627.01868408 247.32750732 627.01868408 248.59814453 626.48779297 C281.91760661 612.3152165 308.76890891 586.35714606 322.76464844 552.74121094 C324.49770536 548.3466096 326.04569473 543.90165279 327.51953125 539.4140625 C327.79756592 538.58189209 328.07560059 537.74972168 328.36206055 536.89233398 C333.84662142 519.33005216 334.21760083 501.83857777 334.15307617 483.57861328 C334.14141777 480.12421787 334.16211991 476.67081942 334.19099331 473.21655464 C334.21369762 469.8891067 334.206898 466.56189857 334.203125 463.234375 C334.21997597 461.38140305 334.21997597 461.38140305 334.23716736 459.49099731 C334.22309593 457.7767305 334.22309593 457.7767305 334.20874023 456.02783203 C334.20857407 455.02511261 334.2084079 454.02239319 334.20823669 452.98928833 C333.56520167 449.60514693 332.37919785 448.46502314 329.70703125 446.3515625 C327.0947537 445.3146279 324.56969133 444.42761787 321.89453125 443.6015625 C308.4763934 439.13317553 297.21839587 432.92316935 286.70703125 423.3515625 C286.0521875 422.76632812 285.39734375 422.18109375 284.72265625 421.578125 C269.30057615 407.04315571 259.1280887 383.22221479 258.50390625 362.19921875 C258.11751384 334.05089608 265.11102999 311.65072084 284.9296875 291.1015625 C296.19576163 279.94640611 309.66735442 272.22929553 324.70703125 267.3515625 C326.15722656 266.87203125 326.15722656 266.87203125 327.63671875 266.3828125 C350.61343756 259.93739527 376.1190138 264.85750973 396.65332031 276.16357422 C417.82320717 288.40949308 433.404891 308.41475381 440.734375 331.6015625 C447.0430071 356.25465015 441.52171869 383.91987313 428.9921875 405.71484375 C417.9154782 423.91125689 400.46994252 435.8467835 380.70703125 443.0390625 C378.66206105 443.78396136 376.62019936 444.53746731 374.58203125 445.30078125 C373.69257812 445.62393311 372.803125 445.94708496 371.88671875 446.2800293 C369.39229303 447.27985581 369.39229303 447.27985581 367.70703125 450.3515625 C367.39196052 452.94477411 367.39196052 452.94477411 367.41992188 455.8984375 C367.40650757 457.03812988 367.39309326 458.17782227 367.37927246 459.35205078 C367.37399536 460.58938965 367.36871826 461.82672852 367.36328125 463.1015625 C367.34091981 465.0627159 367.31854761 467.02386923 367.29560089 468.98501587 C367.25788586 472.4404653 367.23299387 475.89600819 367.20703125 479.3515625 C366.87714464 522.60136592 366.87714464 522.60136592 362.58203125 539.7890625 C362.37030273 540.65047852 362.15857422 541.51189453 361.94042969 542.39941406 C355.43960313 567.51582833 342.60708584 590.78162958 325.70703125 610.3515625 C324.87429688 611.31964844 324.0415625 612.28773438 323.18359375 613.28515625 C295.7694062 644.51083307 253.9745722 665.81218104 212.46582031 669.19482422 C162.35599918 672.04177158 117.72617049 658.63625043 79.8203125 625.1484375 C78.78088006 624.21801037 77.74294649 623.28590401 76.70703125 622.3515625 C75.95808594 621.67609375 75.20914063 621.000625 74.4375 620.3046875 C44.0034366 591.29625233 25.75080984 546.88765083 24.40884399 505.20568848 C24.24646371 497.55609108 24.2136477 489.90664967 24.20092034 482.25553989 C24.19140029 478.4131994 24.16518865 474.57096923 24.14091492 470.72869873 C24.09761467 463.4868219 24.06884571 456.24496692 24.04559153 449.00300097 C24.0183416 440.74386281 23.9744443 432.48483768 23.92930281 424.22578096 C23.83698042 407.26776678 23.76506275 390.30972805 23.70703125 373.3515625 C22.29588722 372.87003737 20.88374074 372.39144946 19.47119141 371.9140625 C18.68491364 371.64722656 17.89863586 371.38039063 17.08853149 371.10546875 C14.89694337 370.41168256 12.72359261 369.8490067 10.48046875 369.3515625 C-7.09629799 365.41792357 -24.40710014 357.98504105 -38.29296875 346.3515625 C-39.20820313 345.63355469 -40.1234375 344.91554688 -41.06640625 344.17578125 C-61.03250468 328.33965661 -80.72332923 304.57649916 -87.29296875 279.3515625 C-87.54401311 276.06181229 -87.56123604 272.77458945 -87.60546875 269.4765625 C-87.88579304 260.39043334 -89.47444479 252.76975932 -92.59912109 244.27978516 C-93.79259771 240.9630792 -94.81642119 237.59417545 -95.85546875 234.2265625 C-96.06397461 233.55882812 -96.27248047 232.89109375 -96.48730469 232.203125 C-100.21852027 220.23043323 -103.47574617 208.13184237 -106.60888672 195.99121094 C-107.06994316 194.2121452 -107.53520313 192.4341642 -108.00439453 190.65722656 C-112.38941522 174.0381448 -115.88998283 157.28945737 -118.92718506 140.37738037 C-119.29319225 138.35032467 -119.66674517 136.32477056 -120.04150391 134.29931641 C-125.47819148 104.69860725 -130.36075214 70.55586229 -112.4765625 44.171875 C-100.09508149 28.18005158 -84.77814352 19.19715984 -65.29296875 14.3515625 C-64.06964844 14.04476562 -62.84632813 13.73796875 -61.5859375 13.421875 C-54.65682656 11.87223358 -47.98608213 11.16504018 -40.91796875 10.9140625 C-30.94994075 10.52915225 -24.73543969 7.85616052 -16.921875 1.62109375 C-12.24549707 -2.02356531 -5.50913112 -1.5579485 0 0 Z " fill="#02C4CC" transform="translate(438.29296875,113.6484375)"/>
<path d="M0 0 C79.86805556 0 79.86805556 0 100.625 19.0625 C113.89771925 32.85294943 117.47764672 49.98453842 117.21484375 68.5546875 C117.0290524 74.04534111 115.94190104 78.86561364 114 84 C113.63648438 85.00675781 113.27296875 86.01351562 112.8984375 87.05078125 C110.40919494 93.49872246 107.43644309 98.72392318 103 104 C102.38125 104.81726563 101.7625 105.63453125 101.125 106.4765625 C91.17968596 118.28662292 76.43431557 122.6690041 62 126 C41.54 126 21.08 126 0 126 C0 84.42 0 42.84 0 0 Z " fill="#03C4CC" transform="translate(53,494)"/>
<path d="M0 0 C9.47825746 7.1086931 16.73154478 15.36727728 21.84375 26.1328125 C22.49150391 27.40898437 22.49150391 27.40898437 23.15234375 28.7109375 C28.36601898 41.05057023 28.07055425 58.46532155 23.34375 70.9453125 C20.51197195 77.70935377 16.60431707 83.58184593 11.84375 89.1328125 C11.25078125 89.84824219 10.6578125 90.56367188 10.046875 91.30078125 C0.14012466 102.24477682 -14.70777017 108.65142118 -29.28515625 109.5078125 C-47.0030466 110.11500219 -60.77325973 105.46492908 -74.46875 93.8828125 C-86.51476501 82.49315087 -92.95617489 66.88817763 -93.53125 50.5078125 C-93.32001234 38.38805194 -90.38018188 26.99431951 -83.15625 17.1328125 C-82.58132813 16.30394531 -82.00640625 15.47507812 -81.4140625 14.62109375 C-62.04212571 -11.62345961 -27.14653508 -17.2276088 0 0 Z " fill="#F5F5EA" transform="translate(822.15625,419.8671875)"/>
<path d="M0 0 C3.35710617 2.7102649 5.96738908 5.84338759 8.02734375 9.63671875 C8.02734375 10.29671875 8.02734375 10.95671875 8.02734375 11.63671875 C8.73697266 10.98316406 8.73697266 10.98316406 9.4609375 10.31640625 C20.6528651 0.23712642 29.51102756 -4.1220266 44.58984375 -3.73046875 C50.23227337 -3.3956276 54.66941264 -2.06923842 59.02734375 1.63671875 C64.89708244 8.34499153 67.2851944 15.11787968 67.25439453 24.01904297 C67.25468658 24.73192978 67.25497864 25.44481659 67.25527954 26.17930603 C67.25389513 28.51680007 67.23837635 30.85396844 67.22265625 33.19140625 C67.21892295 34.8195071 67.21607747 36.44761021 67.21408081 38.07571411 C67.20646931 42.34678423 67.18684231 46.61771686 67.16467285 50.88873291 C67.14416078 55.25262594 67.13506765 59.61654133 67.125 63.98046875 C67.10359391 72.532622 67.06843217 81.08463739 67.02734375 89.63671875 C59.10734375 89.63671875 51.18734375 89.63671875 43.02734375 89.63671875 C43.01276123 87.78997559 42.99817871 85.94323242 42.9831543 84.04052734 C42.93142075 77.92558664 42.86611285 71.81090756 42.79162884 65.69620323 C42.74698101 61.99036222 42.70771298 58.28462972 42.6809082 54.57861328 C42.65481886 50.99927142 42.61437772 47.42034839 42.56415749 43.84126663 C42.5475266 42.47864636 42.53598882 41.1159537 42.52972984 39.75324631 C42.52004844 37.83847224 42.49025837 35.9238323 42.4597168 34.00927734 C42.44861374 32.92117767 42.43751068 31.833078 42.42607117 30.71200562 C41.96177236 27.13098268 40.88401177 24.72039538 39.02734375 21.63671875 C34.31542824 18.27106482 29.63179677 17.78180219 24.02734375 18.63671875 C21.08854369 19.61631877 18.55348759 20.84479964 16.02734375 22.63671875 C15.1772876 23.20003906 14.32723145 23.76335938 13.45141602 24.34375 C9.08114064 28.81301525 10.30086499 35.86609883 10.3203125 41.6875 C10.30718975 43.07043123 10.29188374 44.45334331 10.27449036 45.83622742 C10.23469331 49.46455018 10.2244535 53.09237097 10.22045898 56.72088623 C10.2111173 60.42801083 10.17369747 64.13484172 10.13867188 67.84179688 C10.07414991 75.10682516 10.04346293 82.37139229 10.02734375 89.63671875 C2.10734375 89.63671875 -5.81265625 89.63671875 -13.97265625 89.63671875 C-14.00238525 86.85874878 -14.00238525 86.85874878 -14.03271484 84.0246582 C-14.10055421 77.89778647 -14.17733476 71.77107753 -14.26018333 65.64439106 C-14.31007608 61.9306898 -14.35640649 58.21701602 -14.39453125 54.50317383 C-14.43147312 50.91743419 -14.47785674 47.33192841 -14.53071976 43.74638939 C-14.54921654 42.38014018 -14.56434185 41.01384093 -14.57600021 39.64751625 C-14.59294282 37.73016092 -14.62311024 35.81293638 -14.65380859 33.89575195 C-14.66713226 32.80543167 -14.68045593 31.71511139 -14.69418335 30.5917511 C-15.05161812 26.79881 -15.98729309 23.89081732 -18.34765625 20.88671875 C-21.75618519 18.26477341 -26.28175273 18.1901844 -30.453125 18.2109375 C-35.98913145 19.14647967 -41.05085086 22.71491336 -44.97265625 26.63671875 C-45.30509253 29.38774835 -45.30509253 29.38774835 -45.29150391 32.64697266 C-45.3113736 33.90812897 -45.33124329 35.16928528 -45.35171509 36.46865845 C-45.36359239 37.8501976 -45.3752552 39.23173861 -45.38671875 40.61328125 C-45.40542335 42.02290999 -45.42499623 43.43252746 -45.44540405 44.84213257 C-45.49680637 48.55417237 -45.53638844 52.26624852 -45.57354736 55.97845459 C-45.61353647 59.76567634 -45.66465196 63.5527459 -45.71484375 67.33984375 C-45.81169892 74.77203911 -45.89504454 82.20429296 -45.97265625 89.63671875 C-53.89265625 89.63671875 -61.81265625 89.63671875 -69.97265625 89.63671875 C-69.97265625 59.60671875 -69.97265625 29.57671875 -69.97265625 -1.36328125 C-62.05265625 -1.36328125 -54.13265625 -1.36328125 -45.97265625 -1.36328125 C-45.64265625 1.60671875 -45.31265625 4.57671875 -44.97265625 7.63671875 C-44.36679688 7.1778125 -43.7609375 6.71890625 -43.13671875 6.24609375 C-30.70841455 -2.85524902 -14.46799703 -8.63133498 0 0 Z " fill="#02C4CC" transform="translate(295.97265625,701.36328125)"/>
<path d="M0 0 C10.29289068 7.46374171 17.40119001 16.67638864 20.25 29.25 C21.67075296 44.2565054 20.62728094 58.62160197 11.234375 70.96484375 C3.24577242 80.1643172 -7.00861931 87.11107783 -19.36230469 88.55541992 C-22.12377595 88.68688278 -24.86060918 88.71789896 -27.625 88.6875 C-28.59735596 88.67920166 -29.56971191 88.67090332 -30.5715332 88.66235352 C-37.62318747 88.49604929 -43.50669378 87.72533795 -49.75 84.25 C-50.68972656 83.74082031 -51.62945312 83.23164062 -52.59765625 82.70703125 C-64.13711076 75.92003042 -70.44926426 66.81417716 -74.5625 54.1875 C-78.098549 39.8400828 -76.03879524 26.19231518 -68.5625 13.5 C-53.60458028 -8.4783387 -22.39498299 -13.8221986 0 0 Z " fill="#02C4CC" transform="translate(265.75,533.75)"/>
<path d="M0 0 C0.78246094 0.42410156 1.56492187 0.84820313 2.37109375 1.28515625 C13.44441319 7.98890276 19.92981732 18.05411663 23.8125 30.1875 C25 36 25 36 25 51 C2.56 51 -19.88 51 -43 51 C-38.99223911 60.01746201 -35.99093323 66.71880375 -26.6796875 70.33984375 C-13.56155306 73.57157075 -3.2376893 69.42153674 8 63 C11.3 67.62 14.6 72.24 18 77 C14.71353123 83.57293754 8.10608097 86.43124482 1.3125 88.8125 C-11.80979752 93.01673124 -29.59312893 93.14901943 -42 87 C-53.3137947 81.02546938 -59.96737357 73.68749141 -65 62 C-65.32097656 61.32710937 -65.64195312 60.65421875 -65.97265625 59.9609375 C-70.39544444 49.30510364 -69.05621061 34.56749607 -65 24 C-59.75204038 13.10650806 -52.71961213 5.52321478 -42 0 C-41.29875 -0.41507813 -40.5975 -0.83015625 -39.875 -1.2578125 C-28.6600485 -6.98544845 -10.86713014 -5.98344558 0 0 Z " fill="#02C4CC" transform="translate(456,702)"/>
<path d="M0 0 C33 0 66 0 100 0 C100 7.92 100 15.84 100 24 C88.12 24 76.24 24 64 24 C64 57.66 64 91.32 64 126 C54.76 126 45.52 126 36 126 C36 92.34 36 58.68 36 24 C24.12 24 12.24 24 0 24 C0 16.08 0 8.16 0 0 Z " fill="#06C5CC" transform="translate(46,665)"/>
<path d="M0 0 C41.05869289 0 41.05869289 0 52.33203125 10.1640625 C61.43363082 20.18221659 62.64549967 30.83381064 62.375 43.76953125 C61.7805402 55.65235811 55.96346685 63.35039983 47.625 71.25 C32.56185569 81.2920962 19.53992159 78 0 78 C0 52.26 0 26.52 0 0 Z " fill="#F6F5EA" transform="translate(80,518)"/>
<path d="M0 0 C9.95760984 -0.43445069 18.33098868 2.87821204 25.98828125 9.15234375 C33.63986187 16.17270746 38.05761913 24.32952074 38.63061523 34.73950195 C38.80438418 43.78206235 37.1812625 50.55431818 31.98828125 58.15234375 C31.30378906 59.17908203 31.30378906 59.17908203 30.60546875 60.2265625 C25.90492454 66.41785074 18.34898309 70.8494956 10.98828125 73.15234375 C-0.05464389 74.41210515 -10.56212974 74.0014439 -19.65625 67.1640625 C-26.68031945 61.20954389 -31.57266165 55.09910342 -34.01171875 46.15234375 C-34.22423769 43.33439785 -34.34610287 40.65320409 -34.32421875 37.83984375 C-34.3185791 37.08582275 -34.31293945 36.33180176 -34.30712891 35.55493164 C-34.07808922 25.04972029 -30.69282507 18.05623855 -23.41796875 10.49609375 C-16.76546931 4.34566974 -9.00414273 0.68186712 0 0 Z " fill="#01C4CC" transform="translate(787.01171875,432.84765625)"/>
<path d="M0 0 C3.91186942 2.79832434 7.32219018 6.07743449 10.61328125 9.57421875 C9.01481656 13.82330211 5.80024205 16.39647614 2.48828125 19.32421875 C1.64330078 20.08412109 1.64330078 20.08412109 0.78125 20.859375 C-0.60323406 22.10306407 -1.99433363 23.3393818 -3.38671875 24.57421875 C-6.93710626 22.86653796 -10.18070254 20.83223691 -13.484375 18.6953125 C-18.67274167 15.6376919 -24.56104776 16.02044774 -30.38671875 16.57421875 C-33.31469056 17.56906908 -35.77217006 18.94606797 -38.38671875 20.57421875 C-39.45212891 21.0846875 -39.45212891 21.0846875 -40.5390625 21.60546875 C-43.02918423 22.91107169 -43.35447055 23.95918997 -44.38671875 26.57421875 C-44.92296875 27.68796875 -45.45921875 28.80171875 -46.01171875 29.94921875 C-49.08788686 38.40473725 -48.49687642 48.34306199 -44.71484375 56.453125 C-41.13361267 62.17256169 -35.79865587 65.65063761 -29.38671875 67.57421875 C-21.39587125 68.6823486 -15.03849168 67.19531345 -8.38671875 62.57421875 C-7.39671875 61.08921875 -7.39671875 61.08921875 -6.38671875 59.57421875 C-1.9656626 60.03563966 0.74703283 63.00530723 3.86328125 65.88671875 C4.41757812 66.37333984 4.971875 66.85996094 5.54296875 67.36132812 C7.12890625 68.8125 7.12890625 68.8125 9.61328125 71.57421875 C9.61328125 75.57421875 9.61328125 75.57421875 8.06640625 77.5390625 C-4.10626009 88.43834708 -17.44468021 90.40712553 -33.19677734 89.74902344 C-44.14218354 88.8753433 -54.84629395 82.68965671 -62.26171875 74.76171875 C-72.0351349 62.58002063 -74.73301775 47.82717445 -73.38671875 32.57421875 C-70.91439502 20.13901903 -63.87654728 8.77712949 -53.38671875 1.57421875 C-37.35674615 -7.05295804 -16.35964149 -9.77294459 0 0 Z " fill="#02C4CC" transform="translate(379.38671875,532.42578125)"/>
<path d="M0 0 C7.92 0 15.84 0 24 0 C24 30.03 24 60.06 24 91 C16.08 91 8.16 91 0 91 C0 60.97 0 30.94 0 0 Z " fill="#01C4CC" transform="translate(170,700)"/>
<path d="M0 0 C5.6812706 3.36624142 10.09879361 8.5447658 12.1484375 14.87890625 C13.82434106 23.87658521 13.96389277 33.3389099 9.18359375 41.3828125 C5.6941073 45.98298761 1.36635256 50.10230173 -4.375 51.4375 C-12.304007 52.19461004 -18.22754609 50.84881041 -25.0625 46.875 C-31.96260701 39.60191423 -33.85473165 30.68074537 -33.7890625 20.97265625 C-32.98767245 14.13059966 -30.0368511 7.76866101 -24.828125 3.20703125 C-17.3669211 -2.17501551 -8.70777091 -3.88500548 0 0 Z " fill="#F5F5EA" transform="translate(248.375,549.5625)"/>
<path d="M0 0 C6.02049006 3.87620593 8.68113874 9.44833323 10.7109375 16.1015625 C10.7109375 16.7615625 10.7109375 17.4215625 10.7109375 18.1015625 C-4.1390625 18.1015625 -18.9890625 18.1015625 -34.2890625 18.1015625 C-33.05140559 9.4379641 -30.39253211 5.74838192 -23.97265625 0.30078125 C-17.85814424 -4.05456721 -6.6022016 -2.98074081 0 0 Z " fill="#F2F4EA" transform="translate(447.2890625,718.8984375)"/>
<path d="M0 0 C3.67044769 1.32249271 6.33398013 3.24804208 8.9375 6.1875 C10.89935838 11.38065453 10.64733243 16.09396561 8.875 21.3125 C6.50626666 24.70768445 4.76367773 26.22080689 1 28 C-4.02023393 28.79997224 -7.82265121 28.55656488 -12.4375 26.375 C-16.61077444 22.5070871 -18.15053965 19.06771371 -18.375 13.4375 C-18.21671844 9.50684124 -17.62373313 7.06102199 -15 4 C-10.24631926 -0.18776636 -6.10703032 -1.05147131 0 0 Z " fill="#03C4CC" transform="translate(186,658)"/>
</svg>
